<?xml version="1.0" encoding="utf-8"?>
<!-- Generator: Adobe Illustrator 19.0.0, SVG Export Plug-In . SVG Version: 6.00 Build 0)  -->
<svg version="1.1" id="Layer_1" xmlns="http://www.w3.org/2000/svg" xmlns:xlink="http://www.w3.org/1999/xlink" x="0px" y="0px"
	 viewBox="0 0 526 723.4" style="enable-background:new 0 0 526 723.4;" xml:space="preserve">
<style type="text/css">
	.st0{fill-rule:evenodd;clip-rule:evenodd;fill:#FAAF40;}
	.st1{fill:#FBB040;}
</style>
<g id="XMLID_239_">
	<g id="XMLID_262_">
		<g id="XMLID_263_">
			<path id="XMLID_265_" class="st0" d="M471.4,526.2H526v-29.8v-47.1v-19.9v-57.1l-54.6-44.7c-5-7.4-57.1-57.1-64.5-57.1H397v5
				l-19.8,27.3l5,2.5h-14.9v9.9l-12.4,2.5v9.9L335,352.5c-7.5,2.5-32.3,27.3-32.3,34.7c0,9.9,12.4,19.8,19.8,22.3l14.9,9.9L335,427
				l47.1,59.5l17.3,39.7H471.4z M444.2,0.2h-17.4L469,49.8l29.8,27.3l27.3,2.5V47.3V0.2H444.2z M464,82.1l-47.1-47.2L389.5,0.2
				h-37.2h-263l19.8,9.9c2.5,14.9,29.8,24.8,42.2,29.8c9.9,5,29.8,19.8,44.6,29.8c12.4,7.4,79.4,54.6,84.4,62h9.9l91.8,77
				c2.5,0,12.4,9.9,14.9,9.9c7.4,0,4.9-2.5,12.4-5l2.5-12.4L464,149c14.9-5,2.5-7.4,17.3-17.4c12.4-9.9,10-7.4,10-24.8L464,82.1z
				 M0,235.9v39.7L131.5,288l124.1,64.5c5,2.5,9.9,9.9,17.4,9.9c7.4,0,12.4-14.9,12.4-19.8l29.8-19.8v-7.5
				c10-2.5,57.1-52.1,57.1-69.5v-2.5c0-7.4-47.1-42.1-57.1-44.6h-7.4v-9.9C292.8,186.3,131.5,47.3,91.8,47.3
				c-2.5-9.9-42.2-29.8-44.7-29.8L34.7,15L19.8,0.2H0V235.9z M168.7,486.5l2.5-4.9 M171.2,481.6l29.8-32.3l2.5-9.9
				c14.9,0,29.8-12.4,29.8-29.8v-12.4c0-19.8-27.3-37.2-39.7-44.6c-2.5-2.5-54.6-24.8-57.1-24.8l-49.6-14.9v-5H0v39.7v37.2v39.7
				v101.8h81.9h59.6v-10l2.5,2.5l24.8-32.3 M526,260.7v-67v-52.1h-9.9c-14.9,27.3-17.4,22.3-32.3,39.7c-5,7.4-32.3,42.2-34.7,42.2
				c-7.5,9.9-19.8,7.5-19.8,19.9c0,7.4,22.3,22.3,27.3,27.3l69.5,62V260.7z M282.8,526.2h79.4l-34.7-54.6l-34.7-34.7h-27.3
				l-32.3,27.3l-7.4,7.4V489l-7.5-5l-34.8,42.2H282.8z"/>
		</g>
	</g>
	<g id="XMLID_2_">
		<path id="XMLID_3_" class="st1" d="M1.5,722.9V614H31v85.2h42v23.8H1.5z"/>
		<path id="XMLID_5_" class="st1" d="M168,722.9H83.1v-18.2l47.2-67H84.3V614h82.6v18.1l-47.2,67.1H168V722.9z"/>
		<path id="XMLID_7_" class="st1" d="M213,683.3v39.6h-29.4V614h35.7c29.6,0,44.4,10.7,44.4,32.2c0,12.6-6.2,22.4-18.5,29.3
			l31.7,47.5h-33.4l-23.1-39.6H213z M213,661.1h5.5c10.3,0,15.4-4.5,15.4-13.6c0-7.5-5-11.3-15.1-11.3H213V661.1z"/>
		<path id="XMLID_10_" class="st1" d="M430.2,722.9h-38.6l-39.8-76.8h-0.7c0.9,12.1,1.4,21.3,1.4,27.6v49.1h-26.1V614H365l39.6,75.7
			h0.4c-0.7-11-1-19.8-1-26.5V614h26.2V722.9z"/>
		<path id="XMLID_12_" class="st1" d="M525,689.8c0,6.8-1.7,12.8-5.1,18c-3.4,5.2-8.4,9.3-14.8,12.2c-6.5,2.9-14,4.4-22.7,4.4
			c-7.3,0-13.3-0.5-18.3-1.5c-4.9-1-10-2.8-15.4-5.3v-26.2c5.6,2.9,11.4,5.1,17.5,6.7c6.1,1.6,11.6,2.4,16.7,2.4
			c4.4,0,7.6-0.8,9.6-2.3s3.1-3.5,3.1-5.8c0-1.5-0.4-2.8-1.2-3.9c-0.8-1.1-2.1-2.2-3.9-3.4c-1.8-1.1-6.6-3.5-14.5-7
			c-7.1-3.2-12.4-6.4-16-9.4c-3.6-3-6.2-6.5-7.9-10.4s-2.6-8.6-2.6-13.9c0-10,3.7-17.9,11-23.5c7.3-5.6,17.3-8.4,30.1-8.4
			c11.3,0,22.8,2.6,34.5,7.8l-9,22.7c-10.2-4.7-19-7-26.4-7c-3.8,0-6.6,0.7-8.3,2c-1.7,1.3-2.6,3-2.6,5c0,2.1,1.1,4,3.3,5.7
			c2.2,1.7,8.2,4.8,18,9.2c9.4,4.2,15.9,8.8,19.6,13.6C523.2,676.4,525,682.5,525,689.8z"/>
	</g>
</g>
</svg>
