<?xml version="1.0" encoding="utf-8"?><!DOCTYPE svg PUBLIC "-//W3C//DTD SVG 1.1//EN" "http://www.w3.org/Graphics/SVG/1.1/DTD/svg11.dtd"><svg width="1812" height="5216" viewBox="0 0 1812 5216" xmlns="http://www.w3.org/2000/svg" xmlns:xlink="http://www.w3.org/1999/xlink"><svg viewBox="-10 -10 30 26" width="30" height="26" id="ico-arrow-down" xmlns="http://www.w3.org/2000/svg"><path d="M5 3.3L1.4 0 0 1.3 5 6l5-4.7L8.6 0z"/></svg><svg width="45.13" height="67.44" viewBox="-9.46 -9.66 45.13 67.44" id="ico-arrow-left" y="26" xmlns="http://www.w3.org/2000/svg"><path d="M25.664 1.75L24.25.336.537 24.049l.005.006-.005.006L24.25 47.773l1.414-1.414L3.359 24.055z"/></svg><svg width="45.13" height="67.44" viewBox="-9.46 -9.66 45.13 67.44" id="ico-arrow-right" y="94" xmlns="http://www.w3.org/2000/svg"><path d="M.537 46.359l1.414 1.414 23.713-23.712-.006-.006.006-.006L1.951.336.537 1.75l22.305 22.305z"/></svg><svg viewBox="-10 -10 1020 1020" width="1020" height="1020" id="ico-chevron-down" y="162" xmlns="http://www.w3.org/2000/svg"><path d="M988.2 349.6L527.9 809.2C520 817.1 510.7 821 500 821s-20.1-3.9-27.9-11.8L11.8 349.6C3.9 341.7 0 332.3 0 321.3s3.9-20.4 11.8-28.2l103-102.4c7.9-7.9 17.2-11.8 27.9-11.8s20.1 3.9 27.9 11.8L500 520.2l329.4-329.4c7.9-7.9 17.2-11.8 27.9-11.8 10.8 0 20.1 3.9 27.9 11.8l103 102.4c7.9 7.9 11.8 17.3 11.8 28.2 0 10.9-3.9 20.3-11.8 28.2z"/></svg><svg viewBox="-10 -10 1020 1020" width="1020" height="1020" id="ico-download" y="1182" xmlns="http://www.w3.org/2000/svg"><path d="M911.8 352.9H676.5V0h-353v352.9H88.2L500 764.7l411.8-411.8zM88.2 882.4V1000h823.5V882.4H88.2z"/></svg><svg width="1812" height="1812" viewBox="-10 -10 1812 1812" id="ico-fb" y="2202" xmlns="http://www.w3.org/2000/svg"><path d="M1343 12v264h-157q-86 0-116 36t-30 108v189h293l-39 296h-254v759H734V905H479V609h255V391q0-186 104-288.5T1115 0q147 0 228 12z"/></svg><svg version="1.1" id="ico-hamburger" y="4014" viewBox="-10 -10 37.6 36.5" xml:space="preserve" width="37.6" height="36.5" xmlns="http://www.w3.org/2000/svg"><style>.gst0{fill:#434a4f}</style><path class="gst0" d="M0 0h17.6v2.5H0zM0 7h17.6v2.5H0zM0 14h17.6v2.5H0z"/></svg><svg fill-rule="evenodd" stroke-linejoin="round" stroke-miterlimit="1.414" clip-rule="evenodd" viewBox="-10 -10 36 36" width="36" height="36" id="ico-in" y="4051" xmlns="http://www.w3.org/2000/svg"><path d="M8 0C5.827 0 5.555.01 4.702.048 3.85.088 3.27.222 2.76.42a3.908 3.908 0 0 0-1.417.923c-.445.444-.72.89-.923 1.417-.198.51-.333 1.09-.372 1.942C.008 5.555 0 5.827 0 8s.01 2.445.048 3.298c.04.852.174 1.433.372 1.942.204.526.478.973.923 1.417.444.445.89.72 1.417.923.51.198 1.09.333 1.942.372.853.04 1.125.048 3.298.048s2.445-.01 3.298-.048c.852-.04 1.433-.174 1.942-.372a3.908 3.908 0 0 0 1.417-.923c.445-.444.72-.89.923-1.417.198-.51.333-1.09.372-1.942.04-.853.048-1.125.048-3.298s-.01-2.445-.048-3.298c-.04-.852-.174-1.433-.372-1.942a3.908 3.908 0 0 0-.923-1.417A3.886 3.886 0 0 0 13.24.42c-.51-.198-1.09-.333-1.942-.372C10.445.008 10.173 0 8 0zm0 1.44c2.136 0 2.39.01 3.233.048.78.036 1.203.166 1.485.276.374.145.64.318.92.598.28.28.453.546.598.92.11.282.24.705.276 1.485.038.844.047 1.097.047 3.233s-.01 2.39-.05 3.233c-.04.78-.17 1.203-.28 1.485-.15.374-.32.64-.6.92-.28.28-.55.453-.92.598-.28.11-.71.24-1.49.276-.85.038-1.1.047-3.24.047s-2.39-.01-3.24-.05c-.78-.04-1.21-.17-1.49-.28a2.49 2.49 0 0 1-.92-.6c-.28-.28-.46-.55-.6-.92-.11-.28-.24-.71-.28-1.49-.03-.84-.04-1.1-.04-3.23s.01-2.39.04-3.24c.04-.78.17-1.21.28-1.49.14-.38.32-.64.6-.92.28-.28.54-.46.92-.6.28-.11.7-.24 1.48-.28.85-.03 1.1-.04 3.24-.04zm0 2.452a4.108 4.108 0 1 0 0 8.215 4.108 4.108 0 0 0 0-8.215zm0 6.775a2.667 2.667 0 1 1 0-5.334 2.667 2.667 0 0 1 0 5.334zm5.23-6.937a.96.96 0 1 1-1.92 0 .96.96 0 0 1 1.92 0z"/></svg><svg version="1.1" id="ico-search" y="4087" viewBox="-10 -10 34.8 34.8" xml:space="preserve" width="34.8" height="34.8" xmlns="http://www.w3.org/2000/svg"><style>.ist0{fill:#fff}</style><path class="ist0" d="M5.3 11.5C1.8 11.5-1 8.7-1 5.3S1.8-1 5.3-1s6.3 2.8 6.3 6.3-2.9 6.2-6.3 6.2zm0-11C2.7.5.5 2.6.5 5.3S2.6 10 5.3 10 10 7.9 10 5.3 7.9.5 5.3.5z" transform="translate(1 1)"/><path transform="rotate(-45.001 12.957 10.543)" class="ist0" d="M10.5 8.4H12v5.7h-1.5z"/></svg><svg viewBox="-10 -10 1020 1020" width="1020" height="1020" id="ico-share" y="4122" xmlns="http://www.w3.org/2000/svg"><path d="M801.2 707.3c-38.2 0-72.5 14.8-98.6 38.7L344.9 537.4c2.8-11.3 4.5-23.1 4.5-35.1s-1.8-23.8-4.5-35.1l353.9-206.6c26.9 25.1 62.8 40.7 102.4 40.7 83.1 0 150.6-67.5 150.6-150.6S884.3 0 801.2 0 650.6 67.5 650.6 150.6c0 12 1.8 23.8 4.5 35.1L301.2 392.3c-26.9-25.1-62.8-40.7-102.4-40.7-83.1 0-150.6 67.5-150.6 150.6s67.5 150.6 150.6 150.6c39.7 0 75.6-15.6 102.4-40.7l357.7 208.6c-2.5 10.5-4 21.6-4 32.9 0 80.8 65.5 146.3 146.3 146.3s146.3-65.5 146.3-146.3S882 707.3 801.2 707.3z"/></svg><svg fill-rule="evenodd" stroke-linejoin="round" stroke-miterlimit="1.414" clip-rule="evenodd" viewBox="-10 -10 36 36" width="36" height="36" id="ico-tw" y="5142" xmlns="http://www.w3.org/2000/svg"><path fill-rule="nonzero" d="M16 3.038a6.62 6.62 0 0 1-1.885.517 3.299 3.299 0 0 0 1.443-1.816c-.634.37-1.337.64-2.085.79a3.282 3.282 0 0 0-5.593 2.99 9.307 9.307 0 0 1-6.766-3.42A3.222 3.222 0 0 0 .67 3.75c0 1.14.58 2.143 1.46 2.732a3.278 3.278 0 0 1-1.487-.41v.04c0 1.59 1.13 2.918 2.633 3.22a3.336 3.336 0 0 1-1.475.056 3.29 3.29 0 0 0 3.07 2.28 6.578 6.578 0 0 1-4.85 1.359 9.332 9.332 0 0 0 5.04 1.474c6.04 0 9.34-5 9.34-9.33 0-.14 0-.28-.01-.42a6.63 6.63 0 0 0 1.64-1.7z"/></svg><svg viewBox="-10 -10 37.6 37.6" width="37.6" height="37.6" id="ico-x" y="5178" xmlns="http://www.w3.org/2000/svg"><path d="M8.8 10.1l7.5 7.5 1.3-1.3-7.5-7.5 7.5-7.5L16.3 0 8.8 7.5 1.3 0 0 1.3l7.5 7.5L0 16.3l1.3 1.3 7.5-7.5z"/></svg></svg>